<svg width="75" height="60" viewBox="0 0 75 60" fill="none" xmlns="http://www.w3.org/2000/svg">
<path d="M16.7467 37.5705C18.5693 44.3725 22.7847 50.2887 28.6187 54.2325C34.4527 58.1764 41.5137 59.8831 48.505 59.0392C55.4962 58.1954 61.9484 54.8577 66.6765 49.639C71.4047 44.4203 74.0913 37.6711 74.2432 30.6307C74.395 23.5904 72.0019 16.7316 67.5031 11.3139C63.0044 5.8962 56.7022 2.28338 49.7538 1.13889C42.8054 -0.00560137 35.6774 1.39508 29.6788 5.0837C23.6801 8.77233 19.2135 14.5013 17.0994 21.2184" stroke="#1F1F1F" stroke-width="1.5"/>
<path d="M49.7071 30.7071C50.0976 30.3166 50.0976 29.6834 49.7071 29.2929L43.3431 22.9289C42.9526 22.5384 42.3195 22.5384 41.9289 22.9289C41.5384 23.3195 41.5384 23.9526 41.9289 24.3431L47.5858 30L41.9289 35.6569C41.5384 36.0474 41.5384 36.6805 41.9289 37.0711C42.3195 37.4616 42.9526 37.4616 43.3431 37.0711L49.7071 30.7071ZM0 31H49V29H0V31Z" fill="#1F1F1F"/>
</svg>
