<svg width="75" height="60" viewBox="0 0 75 60" fill="none" xmlns="http://www.w3.org/2000/svg">
<path d="M58.2533 37.5705C56.4307 44.3725 52.2153 50.2887 46.3813 54.2325C40.5473 58.1764 33.4863 59.8831 26.495 59.0392C19.5038 58.1954 13.0516 54.8577 8.32347 49.639C3.59534 44.4203 0.908651 37.6711 0.756801 30.6307C0.604952 23.5904 2.99814 16.7316 7.49686 11.3139C11.9956 5.8962 18.2978 2.28338 25.2462 1.13889C32.1946 -0.00560137 39.3226 1.39508 45.3212 5.0837C51.3199 8.77233 55.7865 14.5013 57.9006 21.2184" stroke="#1F1F1F" stroke-width="1.5"/>
<path d="M25.2929 30.7071C24.9024 30.3166 24.9024 29.6834 25.2929 29.2929L31.6569 22.9289C32.0474 22.5384 32.6805 22.5384 33.0711 22.9289C33.4616 23.3195 33.4616 23.9526 33.0711 24.3431L27.4142 30L33.0711 35.6569C33.4616 36.0474 33.4616 36.6805 33.0711 37.0711C32.6805 37.4616 32.0474 37.4616 31.6569 37.0711L25.2929 30.7071ZM75 31H26V29H75V31Z" fill="#1F1F1F"/>
</svg>
