<svg width="244" height="188" viewBox="0 0 244 188" fill="none" xmlns="http://www.w3.org/2000/svg">
<mask id="mask0_2_3782" style="mask-type:alpha" maskUnits="userSpaceOnUse" x="0" y="0" width="244" height="188">
<rect x="0.71582" y="0.850098" width="243.23" height="186.816" fill="#D9D9D9"/>
</mask>
<g mask="url(#mask0_2_3782)">
<path d="M235.787 133.124C236.534 134.138 237.179 135.114 237.731 136.018C238.26 133.029 238.883 128.959 239.384 124.097C240.486 113.395 240.99 98.9091 238.628 83.7043C236.266 68.4981 231.051 52.6575 220.781 39.1531C210.534 25.6787 195.171 14.4186 172.301 8.46014C126.453 -3.48441 84.0959 10.9525 53.2111 34.6784C37.7689 46.5412 25.2399 60.6956 16.6206 74.9565C7.98642 89.242 3.35251 103.503 3.49899 115.598C3.86014 144.749 19.1279 170.262 43.3004 180.448C67.3967 190.603 101.036 185.797 138.668 152.824C178.081 118.293 203.503 114.618 219.389 120.539C227.268 123.476 232.52 128.689 235.787 133.124Z" fill="#C59D5F" stroke="white" stroke-width="4"/>
<path d="M176.825 99.2637C176.766 100.581 176.546 101.789 176.164 102.889C175.782 103.989 175.259 104.956 174.595 105.792C173.931 106.628 173.139 107.324 172.222 107.881C171.314 108.425 170.294 108.808 169.163 109.029C168.109 109.235 167.149 109.239 166.284 109.041C165.429 108.831 164.696 108.432 164.086 107.846C163.485 107.257 163.03 106.48 162.722 105.516C162.423 104.549 162.303 103.407 162.362 102.09C162.44 100.334 162.799 98.7842 163.439 97.4407C164.079 96.0875 164.955 94.9831 166.067 94.1275C167.189 93.2604 168.502 92.6798 170.007 92.3857C171.444 92.1048 172.685 92.1862 173.729 92.6301C174.783 93.0721 175.58 93.8545 176.118 94.9774C176.667 96.0887 176.903 97.5174 176.825 99.2637ZM164.835 101.607C164.777 102.895 164.895 103.979 165.188 104.86C165.481 105.74 165.966 106.371 166.643 106.751C167.319 107.132 168.209 107.214 169.311 106.999C170.404 106.785 171.311 106.352 172.034 105.698C172.766 105.042 173.321 104.208 173.699 103.196C174.077 102.185 174.294 101.035 174.352 99.747C174.409 98.4689 174.291 97.3993 173.997 96.5381C173.703 95.667 173.218 95.0462 172.541 94.6757C171.864 94.3051 170.969 94.2284 169.858 94.4457C168.219 94.766 166.991 95.5522 166.175 96.8045C165.369 98.0549 164.922 99.6556 164.835 101.607ZM188.239 90.9987L184.314 91.7657L183.682 105.902L181.296 106.368L181.927 92.2321L179.138 92.7771L179.191 91.6064L182.016 90.2565L182.063 89.1883C182.123 87.8419 182.369 86.7109 182.799 85.7951C183.23 84.8695 183.828 84.1337 184.594 83.5876C185.359 83.0415 186.279 82.6636 187.352 82.4538C187.956 82.3359 188.505 82.2818 188.998 82.2917C189.501 82.2998 189.941 82.3346 190.319 82.3963L189.615 84.4341C189.294 84.3905 188.929 84.3651 188.521 84.3578C188.123 84.3389 187.713 84.3707 187.291 84.4531C186.381 84.631 185.691 85.0655 185.224 85.7565C184.766 86.4359 184.508 87.4146 184.451 88.6926L184.399 89.8633L188.324 89.0963L188.239 90.9987ZM198.144 89.063L194.219 89.83L193.588 103.966L191.201 104.433L191.833 90.2964L189.044 90.8414L189.096 89.6707L191.921 88.3208L191.969 87.2525C192.029 85.9062 192.274 84.7752 192.705 83.8594C193.135 82.9338 193.734 82.198 194.499 81.6519C195.265 81.1058 196.184 80.7279 197.257 80.5181C197.861 80.4001 198.41 80.3461 198.904 80.356C199.407 80.3641 199.847 80.3989 200.224 80.4606L199.52 82.4984C199.199 82.4548 198.835 82.4293 198.426 82.4221C198.028 82.4032 197.618 82.4349 197.197 82.5174C196.286 82.6953 195.597 83.1298 195.129 83.8208C194.671 84.5002 194.414 85.4789 194.356 86.7569L194.304 87.9276L198.229 87.1606L198.144 89.063Z" fill="#111111"/>
<path d="M164.051 65.4849C165.201 65.2601 166.05 65.5584 166.599 66.3796C167.156 67.1914 167.396 68.4481 167.32 70.1495C167.244 71.851 166.897 73.2339 166.279 74.2985C165.662 75.3552 164.759 75.9997 163.571 76.232C162.467 76.4478 161.641 76.1411 161.092 75.3122C160.552 74.4739 160.32 73.204 160.396 71.5026C160.472 69.8011 160.811 68.4313 161.412 67.3932C162.013 66.3473 162.893 65.7112 164.051 65.4849ZM163.989 66.878C163.368 66.9994 162.897 67.4203 162.576 68.1406C162.255 68.8531 162.065 69.8689 162.006 71.1879C161.947 72.5069 162.049 73.4735 162.31 74.0878C162.571 74.7021 163.012 74.9485 163.634 74.8271C164.278 74.7013 164.772 74.272 165.116 73.5394C165.461 72.8068 165.662 71.7809 165.721 70.4619C165.78 69.1507 165.667 68.1942 165.382 67.5922C165.105 66.9887 164.64 66.7507 163.989 66.878ZM174.69 63.6495L164.598 82.588L162.919 82.9162L173.011 63.9777L174.69 63.6495ZM173.946 70.3517C175.088 70.1284 175.938 70.4266 176.494 71.2463C177.051 72.0582 177.291 73.3149 177.215 75.0163C177.139 76.7099 176.793 78.089 176.175 79.1536C175.558 80.2103 174.655 80.8548 173.466 81.087C172.355 81.3043 171.528 80.9977 170.988 80.1672C170.448 79.3289 170.215 78.0629 170.291 76.3693C170.367 74.6679 170.702 73.2989 171.295 72.2622C171.897 71.2163 172.781 70.5794 173.946 70.3517ZM173.883 71.7565C173.262 71.8779 172.791 72.2948 172.471 73.0074C172.15 73.7199 171.96 74.7357 171.901 76.0547C171.842 77.3737 171.944 78.3403 172.205 78.9546C172.467 79.561 172.908 79.8036 173.529 79.6822C174.173 79.5563 174.667 79.1349 175.011 78.4179C175.355 77.693 175.557 76.6633 175.616 75.3287C175.675 74.0175 175.561 73.0648 175.276 72.4707C174.999 71.8672 174.535 71.6291 173.883 71.7565Z" fill="#111111"/>
<path d="M106.861 94.7579C109.718 94.1997 112.178 94.2122 114.242 94.7952C116.307 95.3588 117.872 96.4647 118.939 98.1131C120.025 99.7577 120.508 101.917 120.388 104.59C120.257 107.516 119.522 110.165 118.181 112.535C116.84 114.886 114.975 116.866 112.585 118.474C110.196 120.062 107.372 121.175 104.114 121.812C101.928 122.239 99.9052 122.441 98.0442 122.418C96.1831 122.395 94.6278 122.118 93.3784 121.589L93.585 116.965C94.9459 117.55 96.6118 117.901 98.5827 118.019C100.554 118.136 102.478 118.012 104.357 117.645C106.485 117.229 108.359 116.524 109.981 115.53C111.622 114.513 112.915 113.216 113.86 111.639C114.824 110.038 115.355 108.165 115.45 106.019C115.578 103.17 114.813 101.144 113.157 99.9393C111.521 98.7118 108.853 98.4595 105.153 99.1824C103.965 99.4147 102.657 99.767 101.23 100.239C99.8025 100.712 98.6236 101.155 97.6931 101.569L95.3497 100.431L97.8569 80.0386L118.76 75.9537L118.562 80.4024L101.741 83.6894L100.101 96.8044C100.836 96.506 101.782 96.1663 102.939 95.7855C104.097 95.3851 105.405 95.0426 106.861 94.7579ZM154.841 90.0527C154.686 93.5258 154.288 96.6787 153.649 99.5115C153.009 102.344 152.091 104.816 150.895 106.926C149.699 109.035 148.196 110.76 146.388 112.1C144.581 113.42 142.441 114.322 139.969 114.805C136.844 115.416 134.295 115.053 132.322 113.717C130.367 112.378 128.956 110.169 128.086 107.089C127.237 103.986 126.916 100.113 127.123 95.4693C127.327 90.9036 127.953 86.8937 129 83.4396C130.068 79.9623 131.656 77.1471 133.767 74.994C135.878 72.8213 138.601 71.4091 141.937 70.7573C145.099 70.1393 147.667 70.5078 149.64 71.8631C151.613 73.1988 153.025 75.418 153.874 78.5207C154.724 81.6039 155.047 85.4479 154.841 90.0527ZM131.925 94.531C131.747 98.5114 131.896 101.77 132.372 104.308C132.847 106.845 133.717 108.648 134.98 109.717C136.264 110.762 137.988 111.072 140.154 110.649C142.32 110.226 144.094 109.231 145.475 107.666C146.875 106.096 147.932 103.926 148.644 101.157C149.376 98.3833 149.832 94.9966 150.01 90.9967C150.186 87.0748 150.035 83.8549 149.558 81.3369C149.083 78.7994 148.213 76.9965 146.95 75.9282C145.687 74.8404 143.954 74.5118 141.75 74.9426C139.545 75.3734 137.752 76.3912 136.369 77.996C134.987 79.5812 133.94 81.7587 133.227 84.5285C132.534 87.2749 132.1 90.6091 131.925 94.531Z" fill="#111111"/>
<path d="M105.084 39.3034L104.465 53.147C104.398 54.6592 104.036 56.0645 103.379 57.363C102.732 58.6595 101.789 59.7673 100.551 60.6862C99.3137 61.5953 97.7843 62.2279 95.9633 62.5837C93.3659 63.0913 91.4188 62.761 90.1219 61.5928C88.8346 60.4228 88.2445 58.6378 88.3518 56.2379L88.9676 42.4528L91.426 41.9724L90.8069 55.8306C90.7258 57.6452 91.1329 58.9534 92.0281 59.7552C92.9329 60.5551 94.3246 60.7715 96.2032 60.4044C97.4875 60.1535 98.5474 59.7142 99.383 59.0868C100.229 58.4476 100.867 57.6653 101.298 56.7398C101.739 55.8026 101.984 54.773 102.034 53.6511L102.654 39.7782L105.084 39.3034ZM117.48 41.9C119.445 41.5161 120.981 41.8976 122.089 43.0447C123.197 44.1918 123.689 46.1458 123.566 48.9067C123.484 50.731 123.147 52.3152 122.555 53.6591C121.963 55.0029 121.164 56.0875 120.158 56.9126C119.162 57.7359 118.002 58.2768 116.68 58.5353C115.846 58.6982 115.118 58.7293 114.495 58.6286C113.873 58.5278 113.345 58.3312 112.911 58.0387C112.478 57.7463 112.123 57.4047 111.845 57.014L111.673 57.0477C111.685 57.4226 111.698 57.8745 111.712 58.4036C111.736 58.9308 111.739 59.3944 111.721 59.7944L111.427 66.3797L109.026 66.8488L110.063 43.6396L112.033 43.2547L112.243 45.5635L112.358 45.5411C112.687 44.9933 113.08 44.4764 113.539 43.9903C113.998 43.4943 114.549 43.0675 115.192 42.7098C115.845 42.3404 116.608 42.0705 117.48 41.9ZM116.972 44.0302C115.879 44.2437 114.988 44.6307 114.298 45.1911C113.617 45.7496 113.104 46.488 112.759 47.4065C112.415 48.3152 112.204 49.4153 112.127 50.7068L112.106 51.1751C112.046 52.5312 112.138 53.6494 112.384 54.5298C112.639 55.4083 113.091 56.0259 113.741 56.3825C114.399 56.7374 115.299 56.8033 116.439 56.5804C117.417 56.3894 118.244 55.9619 118.919 55.298C119.595 54.634 120.112 53.7931 120.471 52.7752C120.84 51.7457 121.053 50.6066 121.109 49.3578C121.193 47.4652 120.896 46.034 120.217 45.0641C119.549 44.0827 118.467 43.738 116.972 44.0302ZM140.188 51.9685C140.581 51.8917 140.985 51.7789 141.4 51.6301C141.815 51.4812 142.155 51.3328 142.418 51.1846L142.333 53.0724C142.05 53.2535 141.657 53.4367 141.154 53.6219C140.662 53.8052 140.181 53.9428 139.711 54.0346C138.877 54.1975 138.126 54.1991 137.459 54.0394C136.792 53.87 136.268 53.4694 135.888 52.8378C135.517 52.2043 135.36 51.2583 135.416 49.9998L135.841 40.4878L133.599 40.926L133.652 39.7407L135.951 38.3484L137.056 34.6801L138.493 34.3992L138.327 38.1162L142.942 37.2144L142.857 39.1168L138.242 40.0186L137.821 49.4574C137.776 50.4623 137.967 51.1695 138.396 51.579C138.833 51.9866 139.431 52.1165 140.188 51.9685ZM159.463 41.9061C159.404 43.2232 159.184 44.4315 158.802 45.5312C158.421 46.6309 157.898 47.5986 157.233 48.4344C156.569 49.2702 155.778 49.9664 154.86 50.5229C153.952 51.0678 152.933 51.4508 151.802 51.6718C150.747 51.8778 149.788 51.8816 148.922 51.6832C148.067 51.4732 147.334 51.0748 146.724 50.4881C146.123 49.8996 145.669 49.1229 145.36 48.1581C145.062 47.1914 144.942 46.0495 145 44.7324C145.079 42.9764 145.438 41.4266 146.077 40.0831C146.717 38.7299 147.593 37.6255 148.705 36.7699C149.827 35.9028 151.14 35.3222 152.645 35.0281C154.083 34.7472 155.324 34.8286 156.368 35.2725C157.422 35.7145 158.218 36.4969 158.757 37.6198C159.306 38.7311 159.541 40.1598 159.463 41.9061ZM147.473 44.2492C147.416 45.537 147.533 46.6213 147.827 47.502C148.12 48.3828 148.605 49.0134 149.281 49.3937C149.958 49.774 150.847 49.8565 151.949 49.6411C153.042 49.4276 153.95 48.9939 154.672 48.3401C155.405 47.6845 155.96 46.8507 156.337 45.8388C156.715 44.827 156.933 43.6771 156.99 42.3894C157.047 41.1113 156.929 40.0417 156.635 39.1804C156.341 38.3094 155.856 37.6886 155.179 37.3181C154.502 36.9475 153.608 36.8708 152.496 37.0881C150.857 37.4084 149.63 38.1946 148.814 39.4469C148.007 40.6973 147.56 42.298 147.473 44.2492Z" fill="#111111"/>
<path d="M44.1005 108.68C44.0514 109.779 43.7395 110.771 43.1649 111.654C42.5989 112.527 41.825 113.261 40.8434 113.855C39.8617 114.449 38.7188 114.874 37.4147 115.129C36.7253 115.263 36.0747 115.357 35.4631 115.409C34.8514 115.462 34.2909 115.475 33.7816 115.449C33.2723 115.423 32.8265 115.355 32.4444 115.245L32.5368 113.178C33.1481 113.318 33.8972 113.415 34.7841 113.468C35.6713 113.512 36.605 113.439 37.5852 113.247C38.4989 113.069 39.2769 112.795 39.9191 112.427C40.5617 112.05 41.0554 111.597 41.4002 111.069C41.7536 110.53 41.945 109.931 41.9745 109.272C42.0028 108.638 41.8894 108.136 41.6341 107.767C41.3793 107.389 40.9398 107.089 40.3157 106.868C39.7003 106.636 38.8532 106.429 37.7745 106.245C37.0145 106.117 36.347 105.946 35.7719 105.732C35.1973 105.509 34.7201 105.225 34.3402 104.88C33.9604 104.535 33.6792 104.104 33.4964 103.586C33.322 103.067 33.2508 102.448 33.283 101.73C33.3272 100.741 33.61 99.8472 34.1314 99.0496C34.6615 98.242 35.371 97.567 36.2598 97.0245C37.1572 96.4719 38.175 96.0845 39.313 95.8621C40.2848 95.6722 41.1777 95.5899 41.9918 95.6152C42.8141 95.6389 43.563 95.7398 44.2385 95.9179L43.4954 97.8986C42.8516 97.7478 42.1643 97.6517 41.4333 97.6101C40.7107 97.5669 39.9589 97.6217 39.1781 97.7742C38.3973 97.9268 37.7317 98.1742 37.1812 98.5165C36.6394 98.8487 36.2178 99.2537 35.9165 99.7317C35.6152 100.21 35.4515 100.74 35.4254 101.324C35.3964 101.975 35.5051 102.49 35.7516 102.869C36.0065 103.247 36.4212 103.547 36.9959 103.77C37.5792 103.983 38.3528 104.175 39.3167 104.347C40.3705 104.535 41.2612 104.78 41.9887 105.082C42.7167 105.376 43.2615 105.806 43.6232 106.372C43.9852 106.93 44.1444 107.699 44.1005 108.68ZM53.0337 97.8198C54.6618 97.5017 55.8538 97.6375 56.6096 98.2274C57.3655 98.8172 57.707 99.928 57.6341 101.56L57.2119 111.008L55.7043 111.303L55.3974 109.326L55.2977 109.346C54.893 109.928 54.4752 110.433 54.0444 110.861C53.6139 111.28 53.1206 111.632 52.5645 111.917C52.017 112.191 51.3487 112.406 50.5596 112.56C49.729 112.722 48.9963 112.719 48.3616 112.549C47.7352 112.378 47.2486 112.029 46.9016 111.502C46.5629 110.973 46.4142 110.248 46.4554 109.326C46.5173 107.94 47.1048 106.769 48.2179 105.814C49.331 104.859 50.9938 104.131 53.2063 103.632L55.5657 103.07L55.6037 102.221C55.6573 101.02 55.4416 100.228 54.9564 99.8453C54.4713 99.4624 53.7677 99.361 52.8457 99.5412C52.1313 99.6808 51.4455 99.9196 50.7881 100.258C50.1308 100.596 49.505 100.965 48.9107 101.366L48.3466 99.8924C48.9757 99.451 49.694 99.0382 50.5016 98.6541C51.3092 98.27 52.1533 97.9919 53.0337 97.8198ZM55.4745 104.559L53.3898 105.055C51.684 105.455 50.471 105.973 49.751 106.608C49.031 107.243 48.6506 108.017 48.6098 108.93C48.5743 109.725 48.7847 110.267 49.2412 110.555C49.6977 110.843 50.3163 110.91 51.0971 110.758C52.3098 110.521 53.3178 109.984 54.1209 109.148C54.924 108.313 55.3561 107.21 55.4173 105.84L55.4745 104.559ZM64.4759 109.589L59.9137 96.7016L62.1315 96.2682L64.7586 104.09C64.9406 104.624 65.1241 105.217 65.3091 105.868C65.4941 106.519 65.6186 107.048 65.6828 107.455L65.77 107.438C65.8886 106.995 66.0797 106.405 66.3432 105.666C66.6071 104.919 66.8473 104.243 67.0637 103.64L70.4421 94.6442L72.6599 94.2108L66.8432 109.126L64.4759 109.589ZM80.1221 92.5011C81.285 92.2738 82.2701 92.3412 83.0773 92.703C83.8845 93.0649 84.4871 93.6764 84.885 94.5373C85.2833 95.3898 85.4543 96.4459 85.3981 97.7057L85.3397 99.0121L75.9077 100.855C75.8598 102.482 76.2029 103.647 76.9373 104.35C77.6716 105.053 78.7407 105.268 80.1445 104.993C81.0083 104.824 81.7761 104.595 82.4478 104.304C83.1195 104.014 83.8195 103.642 84.5478 103.19L84.4651 105.041C83.7617 105.489 83.0662 105.851 82.3787 106.128C81.6994 106.403 80.8988 106.631 79.9768 106.811C78.6644 107.068 77.5302 107.021 76.5742 106.672C75.6269 106.312 74.9069 105.656 74.4142 104.705C73.9215 103.754 73.7094 102.513 73.7777 100.982C73.8446 99.4858 74.1474 98.1443 74.6862 96.9578C75.2337 95.7612 75.9692 94.7794 76.8928 94.0122C77.8246 93.2434 78.9011 92.7397 80.1221 92.5011ZM80.0201 94.2308C78.9154 94.4467 78.0185 94.9866 77.3294 95.8504C76.6403 96.7142 76.204 97.8178 76.0205 99.1611L83.2471 97.7489C83.2758 96.922 83.1795 96.22 82.9583 95.643C82.7457 95.0559 82.398 94.6378 81.9151 94.3885C81.4326 94.1308 80.8009 94.0782 80.0201 94.2308Z" fill="#111111"/>
</g>
</svg>
